<?xml version="1.0" encoding="utf-8"?>
<!-- Generator: Adobe Illustrator 18.1.1, SVG Export Plug-In . SVG Version: 6.00 Build 0)  -->
<svg version="1.1" id="Layer_2" xmlns="http://www.w3.org/2000/svg" xmlns:xlink="http://www.w3.org/1999/xlink" x="0px" y="0px"
	 width="160px" height="59px" viewBox="0 0 160 59" enable-background="new 0 0 160 59" xml:space="preserve">
<g>
	<g>
		<g>
			<path fill="#fff" d="M70.2,23.1c0-0.1,0-0.2,0.1-0.2c0,0,0.1,0,0.2,0h0.9c0.1,0,0.2,0,0.2,0c0,0,0.1,0.1,0.1,0.2V34
				c0,0.1,0,0.2-0.1,0.2c0,0-0.1,0-0.2,0h-0.9c-0.1,0-0.2,0-0.2,0c0,0-0.1-0.1-0.1-0.2v-5.1h-5.7V34c0,0.1,0,0.2-0.1,0.2
				c0,0-0.1,0-0.2,0h-0.9c-0.1,0-0.2,0-0.2,0C63,34.2,63,34.1,63,34V23.1c0-0.1,0-0.2,0.1-0.2c0.1,0,0.1,0,0.2,0h0.9
				c0.1,0,0.2,0,0.2,0c0,0,0.1,0.1,0.1,0.2v4.5h5.7V23.1z"/>
			<path fill="#fff" d="M82.1,29.9c0,1.5-0.3,2.6-1,3.3c-0.7,0.8-1.6,1.2-2.9,1.2c-1.2,0-2.2-0.4-2.8-1.1c-0.6-0.7-1-1.9-1-3.3
				c0-0.7,0.1-1.4,0.3-1.9c0.2-0.6,0.5-1,0.8-1.4c0.3-0.4,0.7-0.7,1.2-0.9c0.5-0.2,1-0.3,1.5-0.3c1.2,0,2.2,0.4,2.8,1.2
				C81.8,27.5,82.1,28.6,82.1,29.9z M80.7,30c0-0.4,0-0.8-0.1-1.2c-0.1-0.4-0.2-0.7-0.4-1c-0.2-0.3-0.4-0.5-0.7-0.7
				c-0.3-0.2-0.7-0.3-1.2-0.3c-0.4,0-0.8,0.1-1.1,0.3c-0.3,0.2-0.6,0.4-0.8,0.7c-0.2,0.3-0.3,0.6-0.4,1c-0.1,0.4-0.1,0.8-0.1,1.2
				c0,0.5,0,0.9,0.1,1.3c0.1,0.4,0.2,0.8,0.4,1c0.2,0.3,0.4,0.5,0.7,0.7c0.3,0.2,0.7,0.2,1.1,0.2c0.5,0,0.8-0.1,1.1-0.3
				c0.3-0.2,0.6-0.4,0.7-0.7c0.2-0.3,0.3-0.7,0.4-1C80.6,30.8,80.7,30.4,80.7,30z"/>
			<path fill="#fff" d="M84.2,26.8c-0.1,0-0.2,0-0.2-0.1c0,0,0-0.1,0-0.2v-0.5c0-0.1,0.1-0.2,0.2-0.3l1.3-0.2l0.3-1.6
				c0-0.1,0.1-0.2,0.1-0.2c0,0,0.1-0.1,0.2-0.1l0.5-0.2c0.1,0,0.1,0,0.2,0c0,0,0.1,0.1,0.1,0.2v2h1.8c0.1,0,0.2,0,0.2,0.1
				c0,0,0,0.1,0,0.2v0.7c0,0.1,0,0.1,0,0.2c0,0-0.1,0-0.2,0h-1.8v5.3c0,0.4,0.1,0.7,0.3,0.8c0.2,0.2,0.4,0.3,0.8,0.3
				c0.1,0,0.3,0,0.6,0c0.3,0,0.5-0.1,0.7-0.1c0.1,0,0.2,0,0.2,0c0,0,0,0.1,0.1,0.1l0.1,0.7c0,0.1,0,0.1,0,0.2c0,0-0.1,0.1-0.1,0.1
				c-0.3,0.1-0.6,0.2-1,0.2c-0.3,0-0.6,0-0.7,0c-0.8,0-1.4-0.2-1.8-0.5c-0.3-0.4-0.5-0.9-0.5-1.7v-5.4H84.2z"/>
			<path fill="#fff" d="M95,25.5c0.6,0,1.2,0.1,1.6,0.3c0.5,0.2,0.8,0.4,1.1,0.7c0.3,0.3,0.5,0.7,0.6,1.1
				c0.1,0.4,0.2,0.9,0.2,1.5c0,0.3,0,0.5-0.1,0.6c-0.1,0.2-0.2,0.3-0.3,0.4c-0.1,0.1-0.2,0.2-0.4,0.2c-0.1,0-0.3,0.1-0.5,0.1h-4.7
				c0,0.5,0.1,0.9,0.2,1.3c0.1,0.4,0.3,0.7,0.6,0.9c0.2,0.2,0.5,0.4,0.8,0.5c0.3,0.1,0.6,0.1,1,0.1c0.4,0,0.7,0,1.1-0.1
				c0.3-0.1,0.6-0.2,0.9-0.3c0.1-0.1,0.2,0,0.3,0.1l0.3,0.7c0.1,0.2,0,0.3-0.1,0.3c-0.4,0.2-0.8,0.4-1.3,0.5
				c-0.5,0.1-0.9,0.1-1.3,0.1c-0.6,0-1.2-0.1-1.6-0.3c-0.5-0.2-0.9-0.4-1.2-0.8c-0.3-0.4-0.6-0.8-0.8-1.4c-0.2-0.6-0.3-1.2-0.3-2
				c0-0.7,0.1-1.4,0.3-1.9c0.2-0.6,0.5-1,0.8-1.4c0.3-0.4,0.7-0.7,1.2-0.9C94,25.6,94.5,25.5,95,25.5z M97.2,29.3c0-0.3,0-0.7-0.1-1
				s-0.2-0.6-0.4-0.8c-0.2-0.2-0.4-0.4-0.7-0.6c-0.3-0.1-0.7-0.2-1.1-0.2c-0.4,0-0.7,0.1-1,0.2c-0.3,0.1-0.5,0.3-0.7,0.6
				c-0.2,0.2-0.3,0.5-0.5,0.8c-0.1,0.3-0.2,0.6-0.2,1H97.2z"/>
			<path fill="#fff" d="M104.2,34.1c0,0-0.1,0.1-0.2,0.1c-0.2,0.1-0.4,0.1-0.6,0.2c-0.2,0-0.4,0-0.6,0c-0.5,0-0.9-0.1-1.2-0.4
				c-0.2-0.3-0.3-0.7-0.3-1.2V22.6c0-0.1,0-0.2,0.1-0.2c0,0,0.1,0,0.2,0h0.9c0.1,0,0.2,0,0.2,0c0,0,0.1,0.1,0.1,0.2v9.8
				c0,0.3,0,0.5,0.1,0.6c0.1,0.1,0.2,0.2,0.4,0.2c0.1,0,0.2,0,0.3,0c0.1,0,0.2,0,0.3,0c0.1,0,0.1,0,0.2,0c0,0,0.1,0.1,0.1,0.1
				l0.1,0.6C104.2,34,104.2,34.1,104.2,34.1z"/>
		</g>
	</g>
	<g>
		<g>
			<path fill="#fff" d="M68.1,50.8c0.5,0,0.9-0.1,1.4-0.2c0.4-0.1,0.8-0.2,1.2-0.4c0.1-0.1,0.2-0.1,0.3,0c0.1,0,0.1,0.1,0.1,0.1
				l0.3,0.7c0.1,0.1,0.1,0.2,0.1,0.3c0,0-0.1,0.1-0.1,0.2c-0.3,0.2-0.5,0.3-0.8,0.4c-0.3,0.1-0.6,0.2-0.9,0.2
				c-0.3,0.1-0.6,0.1-0.9,0.1c-0.3,0-0.6,0-0.8,0c-0.8,0-1.4-0.1-2-0.3c-0.6-0.2-1.1-0.6-1.5-1c-0.4-0.5-0.7-1.1-1-1.8
				c-0.2-0.7-0.3-1.6-0.3-2.6c0-0.9,0.1-1.7,0.4-2.5c0.2-0.7,0.6-1.4,1-1.9c0.4-0.5,1-0.9,1.6-1.2c0.6-0.3,1.3-0.4,2-0.4
				c0.5,0,1,0,1.5,0.1c0.5,0.1,1,0.3,1.6,0.5c0.1,0,0.1,0.1,0.1,0.1c0,0.1,0,0.1,0,0.2l-0.4,0.7c0,0.1-0.1,0.1-0.1,0.1
				c0,0-0.1,0-0.2,0c-0.8-0.3-1.6-0.5-2.4-0.5c-0.6,0-1.1,0.1-1.6,0.4c-0.4,0.3-0.8,0.6-1.1,1c-0.3,0.4-0.5,0.9-0.6,1.5
				c-0.1,0.6-0.2,1.1-0.2,1.7c0,0.6,0.1,1.2,0.2,1.7c0.1,0.5,0.3,1,0.6,1.4c0.3,0.4,0.6,0.7,1.1,0.9C66.8,50.7,67.4,50.8,68.1,50.8z
				"/>
			<path fill="#fff" d="M81,47.7c0,1.5-0.3,2.6-1,3.3c-0.7,0.8-1.6,1.2-2.9,1.2c-1.2,0-2.2-0.4-2.8-1.1c-0.6-0.7-1-1.9-1-3.3
				c0-0.7,0.1-1.4,0.3-1.9c0.2-0.6,0.5-1,0.8-1.4c0.3-0.4,0.7-0.7,1.2-0.9c0.5-0.2,1-0.3,1.5-0.3c1.2,0,2.2,0.4,2.8,1.2
				C80.6,45.2,81,46.3,81,47.7z M79.5,47.7c0-0.4,0-0.8-0.1-1.2c-0.1-0.4-0.2-0.7-0.4-1c-0.2-0.3-0.4-0.5-0.7-0.7
				c-0.3-0.2-0.7-0.3-1.2-0.3c-0.4,0-0.8,0.1-1.1,0.3c-0.3,0.2-0.6,0.4-0.7,0.7c-0.2,0.3-0.3,0.6-0.4,1c-0.1,0.4-0.1,0.8-0.1,1.2
				c0,0.5,0,0.9,0.1,1.3c0.1,0.4,0.2,0.8,0.4,1c0.2,0.3,0.4,0.5,0.7,0.7c0.3,0.2,0.7,0.2,1.1,0.2s0.8-0.1,1.1-0.3
				c0.3-0.2,0.6-0.4,0.7-0.7c0.2-0.3,0.3-0.7,0.4-1C79.5,48.6,79.5,48.2,79.5,47.7z"/>
			<path fill="#fff" d="M92.4,43.3c0.7,0,1.2,0.1,1.7,0.3c0.5,0.2,0.8,0.5,1.1,0.8c0.3,0.4,0.5,0.8,0.6,1.3
				c0.1,0.5,0.2,1,0.2,1.6v4.5c0,0.1,0,0.2-0.1,0.2c0,0-0.1,0-0.2,0h-0.9c-0.1,0-0.2,0-0.2,0c0,0-0.1-0.1-0.1-0.2v-4.3
				c0-1-0.2-1.8-0.5-2.2c-0.4-0.5-1-0.7-1.8-0.7c-0.2,0-0.3,0-0.5,0c-0.2,0-0.4,0.1-0.6,0.1c-0.2,0-0.4,0.1-0.6,0.2
				c-0.2,0.1-0.3,0.1-0.5,0.2c0.2,0.3,0.3,0.7,0.3,1c0,0.4,0.1,0.8,0.1,1.3v4.4c0,0.1,0,0.2-0.1,0.2c0,0-0.1,0-0.2,0h-0.9
				c-0.1,0-0.2,0-0.2,0c0,0-0.1-0.1-0.1-0.2v-4.4c0-0.4,0-0.8-0.1-1.2c-0.1-0.4-0.2-0.7-0.4-0.9c-0.2-0.2-0.4-0.4-0.8-0.6
				c-0.3-0.1-0.7-0.2-1.2-0.2c-0.1,0-0.4,0-0.7,0c-0.3,0-0.6,0.1-0.8,0.1v7.1c0,0.1,0,0.2-0.1,0.2c0,0-0.1,0-0.2,0h-0.9
				c-0.1,0-0.2,0-0.2,0c0,0-0.1-0.1-0.1-0.2v-7.1c0-0.3,0.1-0.6,0.2-0.8c0.1-0.2,0.3-0.3,0.6-0.4c0.3-0.1,0.5-0.2,0.9-0.2
				c0.3,0,0.7,0,1.1,0c0.7,0,1.2,0.1,1.7,0.2c0.4,0.1,0.8,0.4,1.2,0.7h0c0.4-0.3,0.9-0.5,1.4-0.7C91.2,43.4,91.8,43.3,92.4,43.3z"/>
			<path fill="#fff" d="M107.7,43.3c0.7,0,1.2,0.1,1.7,0.3c0.5,0.2,0.8,0.5,1.1,0.8c0.3,0.4,0.5,0.8,0.6,1.3
				c0.1,0.5,0.2,1,0.2,1.6v4.5c0,0.1,0,0.2-0.1,0.2c0,0-0.1,0-0.2,0h-0.9c-0.1,0-0.2,0-0.2,0c0,0-0.1-0.1-0.1-0.2v-4.3
				c0-1-0.2-1.8-0.5-2.2c-0.4-0.5-1-0.7-1.8-0.7c-0.2,0-0.3,0-0.5,0c-0.2,0-0.4,0.1-0.6,0.1c-0.2,0-0.4,0.1-0.6,0.2
				c-0.2,0.1-0.3,0.1-0.5,0.2c0.2,0.3,0.3,0.7,0.3,1c0,0.4,0.1,0.8,0.1,1.3v4.4c0,0.1,0,0.2-0.1,0.2c0,0-0.1,0-0.2,0h-0.9
				c-0.1,0-0.2,0-0.2,0c0,0-0.1-0.1-0.1-0.2v-4.4c0-0.4,0-0.8-0.1-1.2c-0.1-0.4-0.2-0.7-0.4-0.9c-0.2-0.2-0.4-0.4-0.8-0.6
				c-0.3-0.1-0.7-0.2-1.2-0.2c-0.1,0-0.4,0-0.7,0c-0.3,0-0.6,0.1-0.8,0.1v7.1c0,0.1,0,0.2-0.1,0.2c0,0-0.1,0-0.2,0h-0.9
				c-0.1,0-0.2,0-0.2,0c0,0-0.1-0.1-0.1-0.2v-7.1c0-0.3,0.1-0.6,0.2-0.8c0.1-0.2,0.3-0.3,0.6-0.4c0.3-0.1,0.5-0.2,0.9-0.2
				c0.3,0,0.7,0,1.1,0c0.7,0,1.2,0.1,1.7,0.2c0.4,0.1,0.8,0.4,1.2,0.7h0c0.4-0.3,0.9-0.5,1.4-0.7C106.5,43.4,107.1,43.3,107.7,43.3z
				"/>
			<path fill="#fff" d="M120.9,51.2c0,0.2-0.1,0.4-0.2,0.4c-0.5,0.2-1,0.4-1.6,0.4c-0.6,0.1-1.1,0.1-1.6,0.1
				c-0.7,0-1.3-0.1-1.7-0.2c-0.5-0.1-0.8-0.3-1.1-0.6c-0.3-0.3-0.4-0.5-0.5-0.9c-0.1-0.3-0.2-0.7-0.2-1c0-0.4,0.1-0.7,0.2-1.1
				c0.1-0.4,0.3-0.7,0.6-0.9c0.3-0.3,0.6-0.5,1.1-0.6c0.5-0.2,1-0.2,1.7-0.2h2v-0.4c0-0.3,0-0.5-0.1-0.7c0-0.2-0.1-0.4-0.3-0.5
				s-0.3-0.3-0.6-0.3c-0.3-0.1-0.6-0.1-1-0.1c-0.4,0-0.8,0-1.2,0.1c-0.4,0.1-0.8,0.1-1.1,0.2c-0.1,0-0.2,0-0.2,0
				c-0.1,0-0.1-0.1-0.1-0.1l-0.2-0.7c0-0.1,0-0.1,0-0.2c0,0,0.1-0.1,0.2-0.1c0.4-0.2,0.9-0.3,1.4-0.4c0.5-0.1,1-0.1,1.5-0.1
				c1.1,0,1.9,0.2,2.4,0.7c0.5,0.5,0.7,1.2,0.7,2.1V51.2z M119.4,47.8h-1.9c-0.2,0-0.4,0-0.7,0c-0.3,0-0.5,0.1-0.7,0.2
				c-0.2,0.1-0.4,0.3-0.6,0.5c-0.2,0.2-0.2,0.5-0.2,0.9c0,0.3,0.1,0.5,0.2,0.7c0.1,0.2,0.3,0.4,0.4,0.5c0.2,0.1,0.4,0.2,0.7,0.2
				c0.2,0,0.5,0.1,0.8,0.1c0.1,0,0.2,0,0.4,0c0.2,0,0.3,0,0.5,0c0.2,0,0.4-0.1,0.6-0.1c0.2,0,0.4-0.1,0.6-0.2V47.8z"/>
			<path fill="#fff" d="M130.8,52c0,0-0.1,0-0.2,0h-0.9c-0.1,0-0.2,0-0.2,0c0,0-0.1-0.1-0.1-0.2v-4.3c0-0.5,0-0.9-0.1-1.3
				c-0.1-0.4-0.2-0.7-0.4-0.9c-0.2-0.2-0.5-0.4-0.8-0.5c-0.3-0.1-0.8-0.2-1.3-0.2c-0.1,0-0.3,0-0.6,0c-0.3,0-0.6,0.1-0.9,0.1v7.1
				c0,0.1,0,0.2-0.1,0.2c0,0-0.1,0-0.2,0h-0.9c-0.1,0-0.2,0-0.2,0c0,0-0.1-0.1-0.1-0.2v-7.1c0-0.4,0.1-0.7,0.2-0.9
				c0.1-0.2,0.4-0.3,0.8-0.4c0.1,0,0.3,0,0.4-0.1c0.2,0,0.4,0,0.6,0c0.2,0,0.4,0,0.6,0c0.2,0,0.3,0,0.5,0c0.7,0,1.3,0.1,1.8,0.2
				c0.5,0.2,0.9,0.4,1.2,0.7c0.3,0.3,0.6,0.8,0.7,1.3c0.2,0.5,0.2,1.2,0.2,1.9v4.4C130.8,51.9,130.8,51.9,130.8,52z"/>
			<path fill="#fff" d="M133.4,47.9c0-0.6,0.1-1.2,0.2-1.7c0.2-0.6,0.4-1,0.7-1.5c0.3-0.4,0.7-0.8,1.2-1c0.5-0.2,1.1-0.4,1.8-0.4
				c0.3,0,0.5,0,0.9,0c0.3,0,0.7,0.1,1.1,0.2v-3.2c0-0.1,0-0.2,0.1-0.2c0,0,0.1,0,0.2,0h0.9c0.1,0,0.2,0,0.2,0c0,0,0.1,0.1,0.1,0.2
				v11c0,0.1-0.1,0.2-0.2,0.3c-0.6,0.3-1.1,0.4-1.7,0.5c-0.6,0.1-1.1,0.1-1.6,0.1c-0.7,0-1.3-0.1-1.7-0.3c-0.5-0.2-0.9-0.5-1.2-0.9
				c-0.3-0.4-0.5-0.8-0.7-1.4C133.5,49.1,133.4,48.5,133.4,47.9z M134.9,47.9c0,0.6,0.1,1.1,0.2,1.4c0.1,0.4,0.3,0.7,0.5,0.9
				s0.5,0.4,0.8,0.5c0.3,0.1,0.7,0.2,1.1,0.2c0.3,0,0.6,0,1-0.1c0.4-0.1,0.7-0.1,0.9-0.2v-5.9c-0.4-0.1-0.8-0.2-1-0.2
				c-0.3,0-0.5,0-0.8,0c-0.4,0-0.7,0.1-1,0.2c-0.3,0.1-0.6,0.3-0.8,0.6c-0.2,0.3-0.4,0.6-0.5,1C135,46.8,134.9,47.3,134.9,47.9z"/>
			<path fill="#fff" d="M147.1,43.3c0.6,0,1.2,0.1,1.6,0.3c0.5,0.2,0.8,0.4,1.1,0.7c0.3,0.3,0.5,0.7,0.6,1.1
				c0.1,0.4,0.2,0.9,0.2,1.5c0,0.3,0,0.5-0.1,0.6c-0.1,0.2-0.2,0.3-0.3,0.4c-0.1,0.1-0.2,0.2-0.4,0.2c-0.1,0-0.3,0.1-0.5,0.1h-4.7
				c0,0.5,0.1,0.9,0.2,1.3c0.1,0.4,0.3,0.7,0.6,0.9c0.2,0.2,0.5,0.4,0.8,0.5c0.3,0.1,0.6,0.1,1,0.1c0.4,0,0.7,0,1.1-0.1
				c0.3-0.1,0.6-0.2,0.9-0.3c0.1-0.1,0.2,0,0.3,0.1l0.3,0.7c0.1,0.2,0,0.3-0.1,0.3c-0.4,0.2-0.8,0.4-1.3,0.5
				c-0.5,0.1-0.9,0.1-1.3,0.1c-0.6,0-1.2-0.1-1.6-0.3c-0.5-0.2-0.9-0.4-1.2-0.8c-0.3-0.4-0.6-0.8-0.8-1.4c-0.2-0.6-0.3-1.2-0.3-2
				c0-0.7,0.1-1.4,0.3-1.9c0.2-0.6,0.5-1,0.8-1.4c0.3-0.4,0.7-0.7,1.2-0.9C146.1,43.4,146.6,43.3,147.1,43.3z M149.4,47
				c0-0.3,0-0.7-0.1-1c-0.1-0.3-0.2-0.6-0.4-0.8c-0.2-0.2-0.4-0.4-0.7-0.6c-0.3-0.1-0.7-0.2-1.1-0.2c-0.4,0-0.7,0.1-1,0.2
				c-0.3,0.1-0.5,0.3-0.7,0.6c-0.2,0.2-0.3,0.5-0.5,0.8c-0.1,0.3-0.2,0.6-0.2,1H149.4z"/>
			<path fill="#fff" d="M158.4,45.4c-0.1,0.1-0.1,0.1-0.1,0.1c0,0-0.1,0-0.1-0.1c-0.3-0.3-0.7-0.5-1-0.7
				c-0.4-0.2-0.8-0.2-1.3-0.2c-0.3,0-0.6,0-1,0.1v7.1c0,0.1,0,0.2-0.1,0.2c0,0-0.1,0-0.2,0h-0.9c-0.1,0-0.2,0-0.2,0
				c0,0-0.1-0.1-0.1-0.2v-7.2c0-0.4,0.1-0.7,0.2-0.9c0.1-0.2,0.4-0.3,0.8-0.4c0.2,0,0.4,0,0.6-0.1c0.2,0,0.4,0,0.6,0
				c0.6,0,1.2,0.1,1.8,0.3c0.5,0.2,1,0.5,1.5,0.9c0.1,0.1,0.1,0.2,0,0.3L158.4,45.4z"/>
		</g>
	</g>
</g>
<g>
	<path fill="#fff" d="M52.4,22.7c-0.1-0.4-0.5-0.7-0.9-0.8c-2.3-0.4-8.8-1.7-16.4-2.2c-3-6.7-6.4-13-7.4-14.8
		c-0.4-0.8-1.7-0.8-2.1,0c-1.2,2.2-4.3,7.9-7.1,14.9c-7.6,0.6-14.1,1.9-16.4,2.4C1.5,22.2,1.2,22.6,1,23c-0.1,0.4,0,0.9,0.3,1.2
		l11.8,11.8l-2.7,16c-0.1,0.4,0,0.7,0.3,1c0.2,0.3,0.6,0.4,0.9,0.4c0.2,0,0.4,0,0.5-0.1c2.3-1.1,8.6-4.2,14.6-7.8L41.5,53
		c0.2,0.1,0.4,0.1,0.6,0.1c0.2,0,0.5-0.1,0.7-0.2c0.4-0.3,0.6-0.7,0.5-1.1c-0.3-2.1-1.3-9.2-3-16.3c5.3-4.7,10.1-9.7,11.8-11.5
		C52.4,23.6,52.5,23.2,52.4,22.7z M26.6,6.1c1.2,2.2,4.1,7.6,6.8,13.5c-2.1-0.1-4.3-0.2-6.4-0.2c-2.3,0-4.6,0.1-6.8,0.3
		C22.7,13.4,25.4,8.1,26.6,6.1z M41.7,51.4l-13.4-6.9c2.2-1.4,4.3-2.8,6.2-4.2c1.5-1.1,3-2.4,4.5-3.7C40.4,42.8,41.4,48.9,41.7,51.4
		z M33.6,39.1C26.8,44.3,16,49.7,12.1,51.6l2.6-15.8c0-0.2,0-0.5-0.2-0.7L2.8,23.5c3.7-0.7,14-2.6,24.1-2.6
		c10.1,0,20.2,1.7,23.7,2.4C48,26.1,40.4,33.9,33.6,39.1z"/>
	<path fill="#fff" d="M22,30.8c0,2.6,2.1,4.7,4.7,4.7s4.7-2.1,4.7-4.7c0-2.6-2.1-4.7-4.7-4.7S22,28.2,22,30.8z M29.9,30.8
		c0,1.8-1.5,3.2-3.2,3.2s-3.2-1.5-3.2-3.2c0-1.8,1.5-3.2,3.2-3.2S29.9,29.1,29.9,30.8z"/>
</g>
</svg>
